<?xml version="1.0" standalone="no"?><!DOCTYPE svg PUBLIC "-//W3C//DTD SVG 1.1//EN" "http://www.w3.org/Graphics/SVG/1.1/DTD/svg11.dtd"><svg t="1616139525028" class="icon" viewBox="0 0 1024 1024" version="1.1" xmlns="http://www.w3.org/2000/svg" p-id="7397" data-spm-anchor-id="a313x.7781069.0.i28" width="45" height="45" xmlns:xlink="http://www.w3.org/1999/xlink"><defs><style type="text/css"></style></defs><path d="M606.6688 110.4896c-126.8992 0-230.1184 103.2448-230.1184 230.144 0 87.7056 49.3312 164.0448 121.6768 202.88-150.6304 46.4128-260.4288 186.9056-260.4288 352.5888 0 12.16 9.8304 21.9648 21.9648 21.9648 12.1344 0 21.9648-9.8048 21.9648-21.9648 0-179.1744 145.792-324.9152 323.328-325.0176 2.432 0.2304 4.8128 0.0512 7.0656-0.4864 124.3648-2.9184 224.6656-104.9088 224.6656-229.9648C836.7872 213.7088 733.5424 110.4896 606.6688 110.4896L606.6688 110.4896zM606.6688 526.7712c-102.656 0-186.1888-83.5072-186.1888-186.1376 0-102.7072 83.5072-186.1888 186.1888-186.1888 102.656 0 186.1632 83.5072 186.1632 186.1888C792.832 443.2896 709.3248 526.7712 606.6688 526.7712L606.6688 526.7712zM867.8656 635.6736c-8.576-8.6016-22.4768-8.6016-31.0784-0.0512-8.576 8.576-8.6016 22.4768-0.0512 31.0784 61.184 61.3376 94.848 142.848 94.848 229.4016 0 12.16 9.8304 21.9648 21.9648 21.9648 12.1344 0 21.9648-9.8048 21.9648-21.9648C975.5392 797.824 937.3184 705.28 867.8656 635.6736L867.8656 635.6736zM374.2208 532.4032c0 0 0-0.0512 0-0.0768 0-0.0256 0-0.0512 0-0.0512 0-12.16-9.8304-21.9904-21.9648-21.9904-79.7184 0-144.5632-69.2992-144.5632-154.4448 0-85.1456 64.8448-154.4448 144.5632-154.4448 12.1344 0 21.9648-9.856 21.9648-21.9648 0-12.1344-9.8304-21.9648-21.9648-21.9648-103.936 0-188.4928 89.0112-188.4928 198.4 0 72.832 37.504 136.6016 93.2608 171.0848-118.5792 42.0864-204.2624 160.4096-204.2624 299.52 0 12.1344 9.8304 21.9648 21.9648 21.9648 12.1344 0 21.9648-9.8304 21.9648-21.9648 0-150.016 114.6368-272.0256 255.5904-272.0256C364.3904 554.3936 374.1952 544.5632 374.2208 532.4032L374.2208 532.4032zM374.2208 532.4032" p-id="7398" fill="#ffffff"></path></svg>