<?xml version="1.0" standalone="no"?><!DOCTYPE svg PUBLIC "-//W3C//DTD SVG 1.1//EN" "http://www.w3.org/Graphics/SVG/1.1/DTD/svg11.dtd"><svg t="1616133449561" class="icon" viewBox="0 0 1024 1024" version="1.1" xmlns="http://www.w3.org/2000/svg" p-id="2306" data-spm-anchor-id="a313x.7781069.0.i0" width="45" height="45" xmlns:xlink="http://www.w3.org/1999/xlink"><defs><style type="text/css"></style></defs><path d="M176 48c50.752 0 93.76 33.728 107.52 80h436.48a208 208 0 0 1 11.776 415.68l-11.776 0.32h-68.672a112 112 0 0 1-214.656 0.128L304 544a144 144 0 0 0-9.856 287.68L304 832h436.48a112.256 112.256 0 0 1 107.52-80 112 112 0 0 1 0 224A112.256 112.256 0 0 1 740.48 896H304a208 208 0 0 1-11.776-415.68L304 480h132.672a112 112 0 0 1 214.72 0h68.608a144 144 0 0 0 9.856-287.68L720 192H283.52a112.256 112.256 0 0 1-107.52 80 112 112 0 0 1 0-224z m672 768a48 48 0 1 0 0 96 48 48 0 0 0 0-96zM544 464a48 48 0 0 0-40.704 22.592l-1.792 3.072a47.808 47.808 0 0 0-4.608 31.68l1.6 5.952 1.792 4.48 3.2 5.888 3.968 5.44-2.624-3.392a48 48 0 0 0 79.744-2.048l1.92-3.392 1.28-2.496 1.728-4.48a48 48 0 0 0-1.728-35.072l-1.28-2.56-1.792-3.072-1.6-2.432A48 48 0 0 0 544 464z m-368-352a48 48 0 1 0 0 96 48 48 0 0 0 0-96z" fill="#ffffff" p-id="2307" data-spm-anchor-id="a313x.7781069.0.i2" class="selected"></path></svg>