<?xml version="1.0" standalone="no"?><!DOCTYPE svg PUBLIC "-//W3C//DTD SVG 1.1//EN" "http://www.w3.org/Graphics/SVG/1.1/DTD/svg11.dtd"><svg t="1616139443499" class="icon" viewBox="0 0 1024 1024" version="1.1" xmlns="http://www.w3.org/2000/svg" p-id="5594" data-spm-anchor-id="a313x.7781069.0.i22" width="45" height="45" xmlns:xlink="http://www.w3.org/1999/xlink"><defs><style type="text/css"></style></defs><path d="M816.409035 541.692253l7.373944-4.485151L823.782979 107.007129l-0.013303-29.344329-24.107047 16.747429c-0.782829 0.543376-79.291904 54.358025-169.781848 54.358025-37.247322 0-71.663156-9.136078-102.290711-27.15343C468.928019 87.100754 405.178089 69.602218 338.114694 69.602218c-75.354222 0-127.092583 22.403243-129.257899 23.355941l-9.160637 4.033873-0.002047 5.888104-0.001023 0 0 3.957125-0.127913 421.733137 0.011256 26.990724 0.116657-0.069585 0 382.859781 30.699186 0L230.392274 537.692149c19.133779-9.642614 72.459289-33.095769 138.441049-33.095769 50.965765 0 98.927103 13.824867 142.552693 41.09086 42.423205 26.513864 89.853447 39.95806 140.973732 39.95806C743.090169 585.644277 813.458843 543.487132 816.409035 541.692253zM527.656585 519.653307c-48.579415-30.361495-102.015442-45.757137-158.823262-45.757137-60.617589 0-110.719684 17.493419-138.441049 29.783327L230.392274 117.609605c17.086144-5.906523 56.688093-17.308201 107.72242-17.308201 61.516052 0 120.027677 16.07307 173.910888 47.772027 35.408441 20.830421 75.061556 31.392988 117.856221 31.392988 69.468165 0 130.836861-27.509541 163.201989-45.25981l0 385.293203c-19.394722 10.073426-74.797543 35.44528-140.726092 35.44528C607.080495 554.945091 565.124941 543.071669 527.656585 519.653307z" p-id="5595" fill="#ffffff"></path></svg>